<svg width="17" height="17" viewBox="0 0 17 17" fill="none" xmlns="http://www.w3.org/2000/svg">
<path d="M0.96398 6.86001C2.88415 11.0406 6.29537 14.3541 10.53 16.152L11.21 16.455C11.963 16.7903 12.8102 16.8491 13.6023 16.621C14.3945 16.3929 15.0806 15.8925 15.54 15.208L16.429 13.884C16.5681 13.6764 16.6244 13.4242 16.5868 13.1771C16.5493 12.93 16.4205 12.7059 16.226 12.549L13.214 10.119C13.1091 10.0344 12.9882 9.97194 12.8585 9.93526C12.7289 9.89859 12.5931 9.88849 12.4595 9.90559C12.3258 9.92268 12.197 9.9666 12.0808 10.0347C11.9645 10.1028 11.8632 10.1938 11.783 10.302L10.851 11.559C8.45859 10.3774 6.5221 8.44061 5.34098 6.04801L6.59698 5.11601C6.70523 5.03577 6.79614 4.93448 6.86426 4.81823C6.93238 4.70198 6.97631 4.57316 6.9934 4.4395C7.01049 4.30585 7.0004 4.17012 6.96372 4.04046C6.92705 3.91081 6.86455 3.7899 6.77998 3.68501L4.34998 0.673008C4.19308 0.478461 3.96901 0.349722 3.72192 0.312149C3.47482 0.274576 3.22262 0.330893 3.01498 0.470008L1.68198 1.36401C0.99338 1.82579 0.49107 2.51702 0.264532 3.31457C0.0379943 4.11213 0.101941 4.9642 0.44498 5.71901L0.96398 6.86001Z" fill="black"/>
</svg>
