<svg width="77" height="77" viewBox="0 0 77 77" fill="none" xmlns="http://www.w3.org/2000/svg">
<g clip-path="url(#clip0_258_1383)">
<path d="M89.7258 39.1985C89.7258 66.8474 66.7061 89.2613 38.3099 89.2613C9.91372 89.2613 -13.106 66.8474 -13.106 39.1985C-13.106 11.5495 9.91372 -10.8644 38.3099 -10.8644C66.7061 -10.8644 89.7258 11.5495 89.7258 39.1985ZM-7.38386 39.1985C-7.38386 63.7703 13.0739 83.6898 38.3099 83.6898C63.5459 83.6898 84.0037 63.7703 84.0037 39.1985C84.0037 14.6266 63.5459 -5.29286 38.3099 -5.29286C13.0739 -5.29286 -7.38386 14.6266 -7.38386 39.1985Z" fill="#10793F"/>
<path d="M38.5004 27.1611V5.43225H17.858C16.1291 5.43225 14.4711 6.11903 13.2486 7.34152C12.0261 8.564 11.3394 10.222 11.3394 11.9509V64.1C11.3394 65.8289 12.0261 67.4869 13.2486 68.7094C14.4711 69.9319 16.1291 70.6187 17.858 70.6187H59.1427C60.8716 70.6187 62.5296 69.9319 63.7521 68.7094C64.9746 67.4869 65.6614 65.8289 65.6614 64.1V32.8051L65.6586 32.5933H43.9326C42.4918 32.5933 41.1101 32.0209 40.0914 31.0022C39.0727 29.9835 38.5004 28.6018 38.5004 27.1611ZM25.5989 39.3835H51.4018C51.9421 39.3835 52.4602 39.5981 52.8423 39.9801C53.2243 40.3622 53.4389 40.8803 53.4389 41.4206C53.4389 41.9608 53.2243 42.479 52.8423 42.861C52.4602 43.243 51.9421 43.4576 51.4018 43.4576H25.5989C25.0586 43.4576 24.5405 43.243 24.1585 42.861C23.7764 42.479 23.5618 41.9608 23.5618 41.4206C23.5618 40.8803 23.7764 40.3622 24.1585 39.9801C24.5405 39.5981 25.0586 39.3835 25.5989 39.3835ZM23.5618 49.5689C23.5618 49.0286 23.7764 48.5105 24.1585 48.1284C24.5405 47.7464 25.0586 47.5318 25.5989 47.5318H51.4018C51.9421 47.5318 52.4602 47.7464 52.8423 48.1284C53.2243 48.5105 53.4389 49.0286 53.4389 49.5689C53.4389 50.1091 53.2243 50.6273 52.8423 51.0093C52.4602 51.3913 51.9421 51.6059 51.4018 51.6059H25.5989C25.0586 51.6059 24.5405 51.3913 24.1585 51.0093C23.7764 50.6273 23.5618 50.1091 23.5618 49.5689ZM25.5989 55.6801H51.4018C51.9421 55.6801 52.4602 55.8947 52.8423 56.2767C53.2243 56.6588 53.4389 57.1769 53.4389 57.7172C53.4389 58.2574 53.2243 58.7756 52.8423 59.1576C52.4602 59.5396 51.9421 59.7542 51.4018 59.7542H25.5989C25.0586 59.7542 24.5405 59.5396 24.1585 59.1576C23.7764 58.7756 23.5618 58.2574 23.5618 57.7172C23.5618 57.1769 23.7764 56.6588 24.1585 56.2767C24.5405 55.8947 25.0586 55.6801 25.5989 55.6801ZM42.5745 27.1611V6.7224C42.8262 6.91071 43.0652 7.11714 43.2916 7.34167L63.4722 27.5223C63.7818 27.8337 64.0607 28.166 64.3087 28.5191H43.9326C43.5724 28.5191 43.227 28.376 42.9723 28.1213C42.7176 27.8667 42.5745 27.5212 42.5745 27.1611Z" fill="#10793F"/>
</g>
<defs>
<clipPath id="clip0_258_1383">
<rect width="76.0508" height="76.0508" fill="white" transform="translate(0.474609)"/>
</clipPath>
</defs>
</svg>
