<svg width="21" height="16" viewBox="0 0 21 16" fill="none" xmlns="http://www.w3.org/2000/svg">
<path d="M18.9639 0H2.96387C1.86387 0 0.973867 0.9 0.973867 2L0.963867 14C0.963867 15.1 1.86387 16 2.96387 16H18.9639C20.0639 16 20.9639 15.1 20.9639 14V2C20.9639 0.9 20.0639 0 18.9639 0ZM18.5639 4.25L11.4939 8.67C11.1739 8.87 10.7539 8.87 10.4339 8.67L3.36387 4.25C3.26359 4.19371 3.17579 4.11766 3.10576 4.02645C3.03573 3.93525 2.98493 3.83078 2.95644 3.71937C2.92796 3.60796 2.92237 3.49194 2.94002 3.37831C2.95768 3.26468 2.9982 3.15581 3.05915 3.0583C3.12009 2.96079 3.20019 2.87666 3.29459 2.811C3.389 2.74533 3.49574 2.69951 3.60836 2.6763C3.72099 2.65309 3.83715 2.65297 3.94982 2.67595C4.06249 2.69893 4.16933 2.74453 4.26387 2.81L10.9639 7L17.6639 2.81C17.7584 2.74453 17.8652 2.69893 17.9779 2.67595C18.0906 2.65297 18.2067 2.65309 18.3194 2.6763C18.432 2.69951 18.5387 2.74533 18.6331 2.811C18.7275 2.87666 18.8076 2.96079 18.8686 3.0583C18.9295 3.15581 18.9701 3.26468 18.9877 3.37831C19.0054 3.49194 18.9998 3.60796 18.9713 3.71937C18.9428 3.83078 18.892 3.93525 18.822 4.02645C18.7519 4.11766 18.6641 4.19371 18.5639 4.25Z" fill="black"/>
</svg>
