<svg width="61" height="78" viewBox="0 0 61 78" fill="none" xmlns="http://www.w3.org/2000/svg">
<path d="M30.4998 59.2877C32.4645 59.2877 34.3486 58.5072 35.7379 57.118C37.1271 55.7287 37.9076 53.8445 37.9076 51.8799C37.9076 49.9152 37.1271 48.031 35.7379 46.6418C34.3486 45.2526 32.4645 44.4721 30.4998 44.4721C28.5351 44.4721 26.6509 45.2526 25.2617 46.6418C23.8725 48.031 23.092 49.9152 23.092 51.8799C23.092 53.8445 23.8725 55.7287 25.2617 57.118C26.6509 58.5072 28.5351 59.2877 30.4998 59.2877ZM52.7231 25.9526C54.6878 25.9526 56.572 26.7331 57.9612 28.1223C59.3505 29.5116 60.1309 31.3957 60.1309 33.3604V70.3993C60.1309 72.364 59.3505 74.2482 57.9612 75.6374C56.572 77.0266 54.6878 77.8071 52.7231 77.8071H8.27644C6.31177 77.8071 4.42757 77.0266 3.03834 75.6374C1.64911 74.2482 0.868652 72.364 0.868652 70.3993V33.3604C0.868652 31.3957 1.64911 29.5116 3.03834 28.1223C4.42757 26.7331 6.31177 25.9526 8.27644 25.9526H11.9803V18.5448C11.9803 13.6332 13.9315 8.92269 17.4046 5.44961C20.8776 1.97654 25.5881 0.0253906 30.4998 0.0253906C32.9318 0.0253906 35.34 0.504411 37.5869 1.4351C39.8338 2.36579 41.8753 3.72992 43.595 5.44961C45.3147 7.1693 46.6788 9.21087 47.6095 11.4578C48.5402 13.7046 49.0192 16.1128 49.0192 18.5448V25.9526H52.7231ZM30.4998 7.43317C27.5528 7.43317 24.7265 8.60386 22.6426 10.6877C20.5588 12.7716 19.3881 15.5978 19.3881 18.5448V25.9526H41.6115V18.5448C41.6115 15.5978 40.4408 12.7716 38.3569 10.6877C36.2731 8.60386 33.4468 7.43317 30.4998 7.43317Z" fill="#10793F"/>
</svg>
